# xmcd
#
# Track frame offsets:
#	150
#	18580
#	39215
#	54011
#	68820
#	86406
#	102394
#	120305
#	141281
#	158278
#	172828
#	188184
#	201747
#	218685
#
# Disc length: 3168
#
# Revision: 1
# Processed by: cddbd v1.5.1PL0 Copyright (c) Steve Scherf et al.
# Submitted via: CDex 1.50beta9
# Normalized: r0:TDELIM( - )
#
DISCID=b00c5e0e
DTITLE=Various Artist - Hot Hitz - Country - Vol 3
DYEAR=2002
DGENRE=Country
TTITLE0=Alan Jackson - Drive (For Daddy Gene)
TTITLE1=Willie Nelson and Leann Womack - Mendocino County Line
TTITLE2=Brad Paisley - I'm Gonna Miss Her
TTITLE3=SheDaisy - Get Over Yourself
TTITLE4=Trace Adkins - Help Me Understand
TTITLE5=Darryl Worley - I Miss My Friend
TTITLE6=Shannon Lawson - Goodbye On A Bad Day
TTITLE7=Sara Evans - I Keep Looking
TTITLE8=Pat Green - Three Days
TTITLE9=Soggy Bottom Boys - I Am A Man Of Constant Sorrow
TTITLE10=Ty Herndon - Heather's Wall
TTITLE11=Jamie O'Neal - Frantic
TTITLE12=Montgomery Gentry - Didn't I
TTITLE13=Clint Black - Money Or Love
EXTD=YEAR: 2002
EXTT0=
EXTT1=
EXTT2=
EXTT3=
EXTT4=
EXTT5=
EXTT6=
EXTT7=
EXTT8=
EXTT9=
EXTT10=
EXTT11=
EXTT12=
EXTT13=
PLAYORDER=
